HIERARCHY
ROOT Hips
{
  OFFSET 0.000000 100.000000 0.000000
  CHANNELS 6 Xposition Yposition Zposition Zrotation Xrotation Yrotation
  JOINT Spine
  {
    OFFSET 0.000000 15.000000 0.000000
    CHANNELS 3 Zrotation Xrotation Yrotation
    JOINT Neck
    {
      OFFSET 0.000000 30.000000 0.000000
      CHANNELS 3 Zrotation Xrotation Yrotation
      JOINT Head
      {
        OFFSET 0.000000 10.000000 0.000000
        CHANNELS 3 Zrotation Xrotation Yrotation
        End Site
        {
          OFFSET 0.000000 15.000000 0.000000
        }
      }
    }
    JOINT LeftShoulder
    {
      OFFSET 15.000000 25.000000 0.000000
      CHANNELS 3 Zrotation Xrotation Yrotation
      JOINT LeftElbow
      {
        OFFSET 28.000000 0.000000 0.000000
        CHANNELS 3 Zrotation Xrotation Yrotation
        JOINT LeftWrist
        {
          OFFSET 24.000000 0.000000 0.000000
          CHANNELS 3 Zrotation Xrotation Yrotation
          End Site
          {
            OFFSET 12.000000 0.000000 0.000000
          }
        }
      }
    }
    JOINT RightShoulder
    {
      OFFSET -15.000000 25.000000 0.000000
      CHANNELS 3 Zrotation Xrotation Yrotation
      JOINT RightElbow
      {
        OFFSET -28.000000 0.000000 0.000000
        CHANNELS 3 Zrotation Xrotation Yrotation
        JOINT RightWrist
        {
          OFFSET -24.000000 0.000000 0.000000
          CHANNELS 3 Zrotation Xrotation Yrotation
          End Site
          {
            OFFSET -12.000000 0.000000 0.000000
          }
        }
      }
    }
  }
  JOINT LeftHip
  {
    OFFSET 10.000000 0.000000 0.000000
    CHANNELS 3 Zrotation Xrotation Yrotation
    JOINT LeftKnee
    {
      OFFSET 0.000000 -42.000000 0.000000
      CHANNELS 3 Zrotation Xrotation Yrotation
      JOINT LeftAnkle
      {
        OFFSET 0.000000 -42.000000 0.000000
        CHANNELS 3 Zrotation Xrotation Yrotation
        End Site
        {
          OFFSET 0.000000 -7.000000 12.000000
        }
      }
    }
  }
  JOINT RightHip
  {
    OFFSET -10.000000 0.000000 0.000000
    CHANNELS 3 Zrotation Xrotation Yrotation
    JOINT RightKnee
    {
      OFFSET 0.000000 -42.000000 0.000000
      CHANNELS 3 Zrotation Xrotation Yrotation
      JOINT RightAnkle
      {
        OFFSET 0.000000 -42.000000 0.000000
        CHANNELS 3 Zrotation Xrotation Yrotation
        End Site
        {
          OFFSET 0.000000 -7.000000 12.000000
        }
      }
    }
  }
}
MOTION
Frames: 13
Frame Time: 0.03333333333333333
47.970566 38.428941 0.011631 -4.310422 27.683333 -1.041652 0.000000 0.000000 0.000000 48.254541 32.270009 17.746715 89.926609 42.648358 17.955672 -8.662140 55.630308 -1.671739 -2.321401 4.042651 -2.368110 2.995061 -27.196328 2.138123 7.252768 -51.026636 -5.212760 -21.596449 -18.833880 19.505720 -32.376212 -22.106297 47.584810 -20.607202 0.077902 -90.828996 8.840148 24.218072 -73.998049 -33.493545 -2.126328 47.385648 4.364991 3.678136 32.826879 54.987960 -21.403140 -44.109948 -29.162100 -5.719807 24.935759
47.630747 38.501096 0.012301 -3.801384 32.225821 -1.036679 0.000000 0.000000 0.000000 59.052232 42.466482 30.751371 99.742660 48.731842 41.278207 -16.572750 57.085306 -6.980498 -1.860503 2.679094 -1.711942 1.883518 -29.058549 1.834406 22.650355 -55.509389 -17.060525 -20.654757 -23.446057 17.571178 -24.830819 -23.917750 36.827518 -33.567733 11.680249 -86.652566 -15.782209 34.848598 -86.030531 -24.192880 -5.831644 35.993419 4.867007 -3.593196 29.982116 42.614282 -10.695691 -46.698166 -22.946266 -6.743903 21.505500
47.146088 36.988392 0.013445 -3.467271 35.580022 -1.046645 0.000000 0.000000 0.000000 71.965774 50.809680 46.152724 106.216607 52.837535 59.863066 -29.007561 57.491387 -15.245662 -1.520135 1.639457 -1.250295 1.633645 -31.229025 1.453885 39.093542 -56.769028 -28.204081 -17.145396 -24.284157 13.630234 -18.762152 -24.169252 27.476852 -65.133857 34.403376 -92.343426 -11.503167 34.049555 -62.350292 -17.555102 -11.308959 31.626959 3.532269 -3.613533 19.075486 29.851376 -7.554771 -33.795589 -16.902807 -9.009750 14.214426
49.751748 48.970526 0.005437 0.118328 48.492497 1.352806 0.000000 0.000000 0.000000 89.823655 58.447996 68.396550 110.787176 57.022314 76.729868 -37.006939 55.444391 -19.879304 -1.322462 -0.254244 -0.998619 1.684679 -31.830450 1.062123 49.956132 -54.153603 -37.203259 -14.202792 -27.122314 10.463657 -14.602839 -25.952890 20.097242 -76.183741 47.669549 -79.956056 4.669547 46.470526 -32.323577 -16.634545 -30.675346 22.365580 15.184447 -12.494003 -0.685792 25.502428 11.541457 -20.719270 -13.524051 -17.838066 2.981467
50.097403 52.111493 0.006434 6.595861 58.976309 6.768004 0.000000 0.000000 0.000000 104.324802 65.061851 87.295678 112.204168 59.438654 89.710360 -48.283126 51.871120 -24.234478 -1.243599 -3.195722 -0.865124 1.935200 -33.327214 0.848422 63.472589 -49.394335 -42.735119 -11.892879 -28.163363 7.232124 -10.704279 -24.691449 14.531145 -68.577069 57.404440 -49.070828 6.237226 51.441056 -20.295422 -12.622088 -39.212920 13.693887 23.749484 -15.706309 -13.879069 18.380998 20.323363 -14.708463 -11.583722 -27.334145 5.594497
49.242340 50.066090 0.007900 9.462365 65.623332 8.892917 0.000000 0.000000 0.000000 117.481031 69.127826 103.588794 109.751027 62.554307 94.701065 -58.408583 50.946521 -25.094499 -1.529627 -4.874509 -0.839966 2.674501 -34.239612 0.227975 72.788848 -45.663272 -44.191310 -9.767588 -26.240082 4.864960 -6.147799 -23.626515 11.593812 -72.896556 54.817131 -41.639534 32.416793 56.257519 11.877196 -7.959913 -47.765131 -2.532389 40.858976 -17.979175 -25.048618 29.399223 36.160696 5.960853 -8.862782 -30.379546 0.311948
48.999304 50.241883 0.001550 14.594212 70.770492 13.277630 0.000000 0.000000 0.000000 129.330121 72.978927 118.596311 104.540033 65.407171 96.324494 -67.924636 49.488471 -24.408877 -1.871132 -8.755156 -1.132341 2.590578 -34.549552 -0.349502 78.524589 -39.727294 -44.212760 -9.110524 -26.937064 2.352169 -3.694023 -22.843665 8.950030 -79.022856 51.654790 -34.544782 45.379098 58.535008 29.883080 1.446873 -54.772439 -22.183039 51.895075 -19.206860 -27.870417 47.005893 48.268089 31.980859 -7.346288 -44.023752 -0.553081
48.152192 49.674594 0.009917 17.317425 74.890969 15.761452 0.000000 0.000000 0.000000 128.316553 77.101325 119.992698 75.709972 59.320063 71.619691 -76.214090 51.224846 -21.043213 -1.722873 -11.750425 -1.302493 2.952241 -38.794136 -1.908207 75.898589 -32.607690 -43.369349 -8.432055 -29.586742 0.986267 -2.191863 -24.819385 6.414475 -80.364202 47.432272 -28.312754 51.419117 57.965313 42.360023 4.545060 -50.420148 -33.126239 57.545286 -17.657838 -29.463139 71.126671 59.140864 65.647721 0.849396 -19.090833 12.515815
45.279047 49.784853 0.002757 13.821815 77.535986 12.555772 0.000000 0.000000 0.000000 128.978417 80.224601 122.576245 60.185304 61.233097 59.705988 -82.072715 45.322352 -20.592828 -1.078095 -14.221197 -1.738991 2.266473 -34.410546 -2.355129 79.350514 -29.139273 -38.601387 -6.673795 -28.507869 -0.556439 -1.484666 -21.681776 4.217704 -78.039664 39.289928 -14.597849 42.525570 53.382900 38.807389 14.914562 -50.983851 -48.855303 70.714643 -17.662039 -23.220227 73.462587 59.266816 78.413003 7.548577 -25.303136 -10.006938
45.237637 50.020647 0.004899 11.493795 79.117837 10.392867 0.000000 0.000000 0.000000 129.021376 82.435000 123.971991 48.139660 63.005070 49.470141 -85.243184 39.982786 -22.158972 -0.881302 -14.833190 -1.941270 1.658197 -29.120328 -2.278583 81.175824 -26.233077 -35.800710 -5.263830 -27.626998 -1.533565 -1.071662 -19.923904 2.505539 -71.848138 29.414124 -11.523134 36.766205 51.660296 41.761267 30.659156 -53.382323 -65.127018 54.623334 -23.070440 8.100304 37.220287 63.878815 39.505743 3.229459 -38.796994 -1.596151
45.228392 48.234493 0.006085 9.937552 78.931108 8.821143 0.000000 0.000000 0.000000 101.626629 83.784054 97.540707 44.814669 68.740707 46.210701 -88.148144 29.341487 -14.807290 -0.383451 -19.259520 -3.136155 0.877915 -22.792705 -2.261180 82.065830 -18.710652 -25.693211 -4.055109 -29.360188 -2.920603 -0.530905 -17.393468 1.614792 -60.380517 21.308968 -19.772639 25.176552 55.425706 48.014439 46.936100 -53.619831 -78.707504 32.834973 -21.459535 25.532090 22.814716 47.794762 -3.689218 -1.071853 -15.609973 26.871422
45.903014 41.799399 0.005558 8.150547 74.425064 6.919950 0.000000 0.000000 0.000000 86.062201 84.374424 82.252021 37.481132 69.526100 38.968486 -93.028739 1.701092 0.711154 0.148375 -23.294278 -5.426533 0.218464 -15.916847 -2.129316 72.873857 -1.993080 -9.997341 -2.503347 -25.580535 -2.517970 0.188392 -18.565616 0.571022 -51.443926 11.814302 -38.948367 -1.249985 52.930530 42.412449 61.873596 -54.076254 -87.376168 20.931258 -26.299540 42.157878 1.421017 46.808012 14.034644 19.010344 -15.474678 -9.652698
45.855646 42.212415 0.008021 7.484193 71.976256 6.005532 0.000000 0.000000 0.000000 66.841288 84.746907 63.698322 27.036333 59.902802 28.919534 -89.121936 -16.454049 -4.432519 1.271883 -25.561212 -9.450534 -0.224360 -10.555977 -2.214503 63.328300 5.227331 -0.625358 -1.942541 -22.132572 -2.476586 0.512905 -18.344856 -0.008942 -41.672842 4.750613 -42.426100 -9.283032 40.167826 51.107765 65.208866 -52.681935 -88.388956 8.471145 -31.477867 55.511438 -11.757172 36.170331 36.800772 23.778152 -32.946925 -17.667105
